<svg xmlns="http://www.w3.org/2000/svg" width="840" height="900" viewBox="0 0 840 900" font-family="ui-monospace, SFMono-Regular, Menlo, Consolas, monospace">
  <rect width="840" height="900" rx="16" fill="#0a0a0a"/>
  <svg x="20" y="20" width="800" height="210">
    
    <defs>
      <pattern id="crtH" width="4" height="4" patternUnits="userSpaceOnUse">
        <rect width="4" height="1" fill="#ffffff" opacity="0.05"/>
      </pattern>
      <clipPath id="scrH"><rect x="1.5" y="40" width="797" height="168.5"/></clipPath>
    </defs>
    <rect x="1.5" y="1.5" width="797" height="207" rx="11" fill="#0a0a0a" stroke="#2b2b2b" stroke-width="1.5"/>
    <rect x="1.5" y="1.5" width="797" height="40" rx="11" fill="#141414"/>
    <rect x="1.5" y="29" width="797" height="11" fill="#141414"/>
    <circle cx="26" cy="21" r="5" fill="none" stroke="#8a8a8a" stroke-width="1.4"/>
    <circle cx="46" cy="21" r="5" fill="none" stroke="#8a8a8a" stroke-width="1.4"/>
    <circle cx="66" cy="21" r="5" fill="none" stroke="#8a8a8a" stroke-width="1.4"/>
    <text x="400" y="25" text-anchor="middle" font-size="14" fill="#9a9a9a">jake@github: ~</text>
    <line x1="1.5" y1="40" x2="798.5" y2="40" stroke="#2b2b2b" stroke-width="1"/>
    <g clip-path="url(#scrH)">
      <g transform="translate(120,86)">
<rect x="22.0" y="0.0" width="9.9" height="9.9" rx="1" fill="#e6e6e6"/>
<rect x="33.0" y="0.0" width="9.9" height="9.9" rx="1" fill="#e6e6e6"/>
<rect x="44.0" y="0.0" width="9.9" height="9.9" rx="1" fill="#e6e6e6"/>
<rect x="33.0" y="11.0" width="9.9" height="9.9" rx="1" fill="#e6e6e6"/>
<rect x="33.0" y="22.0" width="9.9" height="9.9" rx="1" fill="#e6e6e6"/>
<rect x="33.0" y="33.0" width="9.9" height="9.9" rx="1" fill="#e6e6e6"/>
<rect x="33.0" y="44.0" width="9.9" height="9.9" rx="1" fill="#e6e6e6"/>
<rect x="0.0" y="55.0" width="9.9" height="9.9" rx="1" fill="#e6e6e6"/>
<rect x="33.0" y="55.0" width="9.9" height="9.9" rx="1" fill="#e6e6e6"/>
<rect x="11.0" y="66.0" width="9.9" height="9.9" rx="1" fill="#e6e6e6"/>
<rect x="22.0" y="66.0" width="9.9" height="9.9" rx="1" fill="#e6e6e6"/>
<rect x="77.0" y="0.0" width="9.9" height="9.9" rx="1" fill="#e6e6e6"/>
<rect x="88.0" y="0.0" width="9.9" height="9.9" rx="1" fill="#e6e6e6"/>
<rect x="99.0" y="0.0" width="9.9" height="9.9" rx="1" fill="#e6e6e6"/>
<rect x="66.0" y="11.0" width="9.9" height="9.9" rx="1" fill="#e6e6e6"/>
<rect x="110.0" y="11.0" width="9.9" height="9.9" rx="1" fill="#e6e6e6"/>
<rect x="66.0" y="22.0" width="9.9" height="9.9" rx="1" fill="#e6e6e6"/>
<rect x="110.0" y="22.0" width="9.9" height="9.9" rx="1" fill="#e6e6e6"/>
<rect x="66.0" y="33.0" width="9.9" height="9.9" rx="1" fill="#e6e6e6"/>
<rect x="77.0" y="33.0" width="9.9" height="9.9" rx="1" fill="#e6e6e6"/>
<rect x="88.0" y="33.0" width="9.9" height="9.9" rx="1" fill="#e6e6e6"/>
<rect x="99.0" y="33.0" width="9.9" height="9.9" rx="1" fill="#e6e6e6"/>
<rect x="110.0" y="33.0" width="9.9" height="9.9" rx="1" fill="#e6e6e6"/>
<rect x="66.0" y="44.0" width="9.9" height="9.9" rx="1" fill="#e6e6e6"/>
<rect x="110.0" y="44.0" width="9.9" height="9.9" rx="1" fill="#e6e6e6"/>
<rect x="66.0" y="55.0" width="9.9" height="9.9" rx="1" fill="#e6e6e6"/>
<rect x="110.0" y="55.0" width="9.9" height="9.9" rx="1" fill="#e6e6e6"/>
<rect x="66.0" y="66.0" width="9.9" height="9.9" rx="1" fill="#e6e6e6"/>
<rect x="110.0" y="66.0" width="9.9" height="9.9" rx="1" fill="#e6e6e6"/>
<rect x="132.0" y="0.0" width="9.9" height="9.9" rx="1" fill="#e6e6e6"/>
<rect x="176.0" y="0.0" width="9.9" height="9.9" rx="1" fill="#e6e6e6"/>
<rect x="132.0" y="11.0" width="9.9" height="9.9" rx="1" fill="#e6e6e6"/>
<rect x="165.0" y="11.0" width="9.9" height="9.9" rx="1" fill="#e6e6e6"/>
<rect x="132.0" y="22.0" width="9.9" height="9.9" rx="1" fill="#e6e6e6"/>
<rect x="154.0" y="22.0" width="9.9" height="9.9" rx="1" fill="#e6e6e6"/>
<rect x="132.0" y="33.0" width="9.9" height="9.9" rx="1" fill="#e6e6e6"/>
<rect x="143.0" y="33.0" width="9.9" height="9.9" rx="1" fill="#e6e6e6"/>
<rect x="132.0" y="44.0" width="9.9" height="9.9" rx="1" fill="#e6e6e6"/>
<rect x="154.0" y="44.0" width="9.9" height="9.9" rx="1" fill="#e6e6e6"/>
<rect x="132.0" y="55.0" width="9.9" height="9.9" rx="1" fill="#e6e6e6"/>
<rect x="165.0" y="55.0" width="9.9" height="9.9" rx="1" fill="#e6e6e6"/>
<rect x="132.0" y="66.0" width="9.9" height="9.9" rx="1" fill="#e6e6e6"/>
<rect x="176.0" y="66.0" width="9.9" height="9.9" rx="1" fill="#e6e6e6"/>
<rect x="198.0" y="0.0" width="9.9" height="9.9" rx="1" fill="#e6e6e6"/>
<rect x="209.0" y="0.0" width="9.9" height="9.9" rx="1" fill="#e6e6e6"/>
<rect x="220.0" y="0.0" width="9.9" height="9.9" rx="1" fill="#e6e6e6"/>
<rect x="231.0" y="0.0" width="9.9" height="9.9" rx="1" fill="#e6e6e6"/>
<rect x="242.0" y="0.0" width="9.9" height="9.9" rx="1" fill="#e6e6e6"/>
<rect x="198.0" y="11.0" width="9.9" height="9.9" rx="1" fill="#e6e6e6"/>
<rect x="198.0" y="22.0" width="9.9" height="9.9" rx="1" fill="#e6e6e6"/>
<rect x="198.0" y="33.0" width="9.9" height="9.9" rx="1" fill="#e6e6e6"/>
<rect x="209.0" y="33.0" width="9.9" height="9.9" rx="1" fill="#e6e6e6"/>
<rect x="220.0" y="33.0" width="9.9" height="9.9" rx="1" fill="#e6e6e6"/>
<rect x="231.0" y="33.0" width="9.9" height="9.9" rx="1" fill="#e6e6e6"/>
<rect x="198.0" y="44.0" width="9.9" height="9.9" rx="1" fill="#e6e6e6"/>
<rect x="198.0" y="55.0" width="9.9" height="9.9" rx="1" fill="#e6e6e6"/>
<rect x="198.0" y="66.0" width="9.9" height="9.9" rx="1" fill="#e6e6e6"/>
<rect x="209.0" y="66.0" width="9.9" height="9.9" rx="1" fill="#e6e6e6"/>
<rect x="220.0" y="66.0" width="9.9" height="9.9" rx="1" fill="#e6e6e6"/>
<rect x="231.0" y="66.0" width="9.9" height="9.9" rx="1" fill="#e6e6e6"/>
<rect x="242.0" y="66.0" width="9.9" height="9.9" rx="1" fill="#e6e6e6"/>
<rect x="308.0" y="0.0" width="9.9" height="9.9" rx="1" fill="#e6e6e6"/>
<rect x="352.0" y="0.0" width="9.9" height="9.9" rx="1" fill="#e6e6e6"/>
<rect x="308.0" y="11.0" width="9.9" height="9.9" rx="1" fill="#e6e6e6"/>
<rect x="341.0" y="11.0" width="9.9" height="9.9" rx="1" fill="#e6e6e6"/>
<rect x="308.0" y="22.0" width="9.9" height="9.9" rx="1" fill="#e6e6e6"/>
<rect x="330.0" y="22.0" width="9.9" height="9.9" rx="1" fill="#e6e6e6"/>
<rect x="308.0" y="33.0" width="9.9" height="9.9" rx="1" fill="#e6e6e6"/>
<rect x="319.0" y="33.0" width="9.9" height="9.9" rx="1" fill="#e6e6e6"/>
<rect x="308.0" y="44.0" width="9.9" height="9.9" rx="1" fill="#e6e6e6"/>
<rect x="330.0" y="44.0" width="9.9" height="9.9" rx="1" fill="#e6e6e6"/>
<rect x="308.0" y="55.0" width="9.9" height="9.9" rx="1" fill="#e6e6e6"/>
<rect x="341.0" y="55.0" width="9.9" height="9.9" rx="1" fill="#e6e6e6"/>
<rect x="308.0" y="66.0" width="9.9" height="9.9" rx="1" fill="#e6e6e6"/>
<rect x="352.0" y="66.0" width="9.9" height="9.9" rx="1" fill="#e6e6e6"/>
<rect x="385.0" y="0.0" width="9.9" height="9.9" rx="1" fill="#e6e6e6"/>
<rect x="396.0" y="0.0" width="9.9" height="9.9" rx="1" fill="#e6e6e6"/>
<rect x="407.0" y="0.0" width="9.9" height="9.9" rx="1" fill="#e6e6e6"/>
<rect x="374.0" y="11.0" width="9.9" height="9.9" rx="1" fill="#e6e6e6"/>
<rect x="418.0" y="11.0" width="9.9" height="9.9" rx="1" fill="#e6e6e6"/>
<rect x="374.0" y="22.0" width="9.9" height="9.9" rx="1" fill="#e6e6e6"/>
<rect x="418.0" y="22.0" width="9.9" height="9.9" rx="1" fill="#e6e6e6"/>
<rect x="374.0" y="33.0" width="9.9" height="9.9" rx="1" fill="#e6e6e6"/>
<rect x="385.0" y="33.0" width="9.9" height="9.9" rx="1" fill="#e6e6e6"/>
<rect x="396.0" y="33.0" width="9.9" height="9.9" rx="1" fill="#e6e6e6"/>
<rect x="407.0" y="33.0" width="9.9" height="9.9" rx="1" fill="#e6e6e6"/>
<rect x="418.0" y="33.0" width="9.9" height="9.9" rx="1" fill="#e6e6e6"/>
<rect x="374.0" y="44.0" width="9.9" height="9.9" rx="1" fill="#e6e6e6"/>
<rect x="418.0" y="44.0" width="9.9" height="9.9" rx="1" fill="#e6e6e6"/>
<rect x="374.0" y="55.0" width="9.9" height="9.9" rx="1" fill="#e6e6e6"/>
<rect x="418.0" y="55.0" width="9.9" height="9.9" rx="1" fill="#e6e6e6"/>
<rect x="374.0" y="66.0" width="9.9" height="9.9" rx="1" fill="#e6e6e6"/>
<rect x="418.0" y="66.0" width="9.9" height="9.9" rx="1" fill="#e6e6e6"/>
<rect x="440.0" y="0.0" width="9.9" height="9.9" rx="1" fill="#e6e6e6"/>
<rect x="484.0" y="0.0" width="9.9" height="9.9" rx="1" fill="#e6e6e6"/>
<rect x="440.0" y="11.0" width="9.9" height="9.9" rx="1" fill="#e6e6e6"/>
<rect x="451.0" y="11.0" width="9.9" height="9.9" rx="1" fill="#e6e6e6"/>
<rect x="484.0" y="11.0" width="9.9" height="9.9" rx="1" fill="#e6e6e6"/>
<rect x="440.0" y="22.0" width="9.9" height="9.9" rx="1" fill="#e6e6e6"/>
<rect x="451.0" y="22.0" width="9.9" height="9.9" rx="1" fill="#e6e6e6"/>
<rect x="484.0" y="22.0" width="9.9" height="9.9" rx="1" fill="#e6e6e6"/>
<rect x="440.0" y="33.0" width="9.9" height="9.9" rx="1" fill="#e6e6e6"/>
<rect x="462.0" y="33.0" width="9.9" height="9.9" rx="1" fill="#e6e6e6"/>
<rect x="484.0" y="33.0" width="9.9" height="9.9" rx="1" fill="#e6e6e6"/>
<rect x="440.0" y="44.0" width="9.9" height="9.9" rx="1" fill="#e6e6e6"/>
<rect x="473.0" y="44.0" width="9.9" height="9.9" rx="1" fill="#e6e6e6"/>
<rect x="484.0" y="44.0" width="9.9" height="9.9" rx="1" fill="#e6e6e6"/>
<rect x="440.0" y="55.0" width="9.9" height="9.9" rx="1" fill="#e6e6e6"/>
<rect x="473.0" y="55.0" width="9.9" height="9.9" rx="1" fill="#e6e6e6"/>
<rect x="484.0" y="55.0" width="9.9" height="9.9" rx="1" fill="#e6e6e6"/>
<rect x="440.0" y="66.0" width="9.9" height="9.9" rx="1" fill="#e6e6e6"/>
<rect x="484.0" y="66.0" width="9.9" height="9.9" rx="1" fill="#e6e6e6"/>
<rect x="517.0" y="0.0" width="9.9" height="9.9" rx="1" fill="#e6e6e6"/>
<rect x="528.0" y="0.0" width="9.9" height="9.9" rx="1" fill="#e6e6e6"/>
<rect x="539.0" y="0.0" width="9.9" height="9.9" rx="1" fill="#e6e6e6"/>
<rect x="506.0" y="11.0" width="9.9" height="9.9" rx="1" fill="#e6e6e6"/>
<rect x="550.0" y="11.0" width="9.9" height="9.9" rx="1" fill="#e6e6e6"/>
<rect x="506.0" y="22.0" width="9.9" height="9.9" rx="1" fill="#e6e6e6"/>
<rect x="506.0" y="33.0" width="9.9" height="9.9" rx="1" fill="#e6e6e6"/>
<rect x="528.0" y="33.0" width="9.9" height="9.9" rx="1" fill="#e6e6e6"/>
<rect x="539.0" y="33.0" width="9.9" height="9.9" rx="1" fill="#e6e6e6"/>
<rect x="550.0" y="33.0" width="9.9" height="9.9" rx="1" fill="#e6e6e6"/>
<rect x="506.0" y="44.0" width="9.9" height="9.9" rx="1" fill="#e6e6e6"/>
<rect x="550.0" y="44.0" width="9.9" height="9.9" rx="1" fill="#e6e6e6"/>
<rect x="506.0" y="55.0" width="9.9" height="9.9" rx="1" fill="#e6e6e6"/>
<rect x="550.0" y="55.0" width="9.9" height="9.9" rx="1" fill="#e6e6e6"/>
<rect x="517.0" y="66.0" width="9.9" height="9.9" rx="1" fill="#e6e6e6"/>
<rect x="528.0" y="66.0" width="9.9" height="9.9" rx="1" fill="#e6e6e6"/>
<rect x="539.0" y="66.0" width="9.9" height="9.9" rx="1" fill="#e6e6e6"/>
      </g>
    </g>
    
    <g clip-path="url(#scrH)">
      <rect x="1.5" y="40" width="797" height="170" fill="url(#crtH)"/>
      <rect x="1.5" width="797" height="16" fill="#ffffff" opacity="0.05">
        <animate attributeName="y" values="40;209;40" dur="5.0s" repeatCount="indefinite"/>
      </rect>
    </g>
  </svg>
<svg x="20" y="300" width="470" height="400" viewBox="0 0 470 400">
    <defs>
      <pattern id="crtS" width="4" height="4" patternUnits="userSpaceOnUse">
        <rect width="4" height="1" fill="#ffffff" opacity="0.05"/>
      </pattern>
      <clipPath id="scrS"><rect x="1.5" y="40" width="467" height="358.5"/></clipPath>
    </defs>
    <rect x="1.5" y="1.5" width="467" height="397" rx="11" fill="#0a0a0a" stroke="#2b2b2b" stroke-width="1.5"/>
    <rect x="1.5" y="1.5" width="467" height="40" rx="11" fill="#141414"/>
    <rect x="1.5" y="29" width="467" height="11" fill="#141414"/>
    <circle cx="26" cy="21" r="5" fill="none" stroke="#8a8a8a" stroke-width="1.4"/>
    <circle cx="46" cy="21" r="5" fill="none" stroke="#8a8a8a" stroke-width="1.4"/>
    <circle cx="66" cy="21" r="5" fill="none" stroke="#8a8a8a" stroke-width="1.4"/>
    <text x="235" y="25" text-anchor="middle" font-size="14" fill="#9a9a9a">jake@github: ~/stack · neofetch</text>
    <line x1="1.5" y1="40" x2="468.5" y2="40" stroke="#2b2b2b" stroke-width="1"/>
    <g clip-path="url(#scrS)">
      <text x="26" y="76" font-size="16" fill="#e6e6e6" font-weight="600">jake@github</text>
      <rect x="140" y="64" width="8" height="14" fill="#e6e6e6"><animate attributeName="opacity" values="1;1;0;0" dur="1.05s" repeatCount="indefinite"/></rect>
      <rect x="26" y="86" width="260" height="1.5" fill="#333"/>
      <g font-size="13">
        <g fill="#9a9a9a">
          <text x="26" y="112">General</text>
          <text x="26" y="156">Uptime</text>
          <text x="26" y="188">Langs</text>
          <text x="26" y="254">AI</text>
        </g>
        <g fill="#e6e6e6">
          <text x="120" y="112">Full-stack development</text>
          <text x="120" y="134">AI/ML · Sales</text>
          <text x="120" y="156">CS + Econ @ Northeastern</text>
          <text x="120" y="188">Python · TypeScript · Java</text>
          <text x="120" y="210">C++ · C# · Lua</text>
          <text x="120" y="232">HTML · CSS</text>
          <text x="120" y="254">PyTorch · Transformers · LoRA</text>
          <text x="120" y="276">LLM APIs · MCP · RAG</text>
          <text x="120" y="298">multi-agent systems</text>
        </g>
      </g>
      <g>
        <rect x="26" y="336" width="12" height="12" fill="#2a2a2a"/>
        <rect x="40" y="336" width="12" height="12" fill="#3d3d3d"/>
        <rect x="54" y="336" width="12" height="12" fill="#525252"/>
        <rect x="68" y="336" width="12" height="12" fill="#6a6a6a"/>
        <rect x="82" y="336" width="12" height="12" fill="#858585"/>
        <rect x="96" y="336" width="12" height="12" fill="#a3a3a3"/>
        <rect x="110" y="336" width="12" height="12" fill="#c4c4c4"/>
        <rect x="124" y="336" width="12" height="12" fill="#e6e6e6"/>
        <rect x="138" y="336" width="12" height="12" fill="#c4c4c4"/>
        <rect x="152" y="336" width="12" height="12" fill="#a3a3a3"/>
        <rect x="166" y="336" width="12" height="12" fill="#858585"/>
        <rect x="180" y="336" width="12" height="12" fill="#6a6a6a"/>
        <rect x="194" y="336" width="12" height="12" fill="#525252"/>
        <rect x="208" y="336" width="12" height="12" fill="#3d3d3d"/>
      </g>
    </g>
    <g clip-path="url(#scrS)">
      <rect x="1.5" y="40" width="467" height="360" fill="url(#crtS)"/>
      <rect x="1.5" width="467" height="16" fill="#ffffff" opacity="0.05">
        <animate attributeName="y" values="40;399;40" dur="4.4s" repeatCount="indefinite"/>
      </rect>
    </g>
  </svg>

<svg x="460" y="270" width="360" height="330" viewBox="0 0 360 330" xmlns="http://www.w3.org/2000/svg" font-family="ui-monospace, SFMono-Regular, Menlo, Consolas, monospace">
  <defs>
    <pattern id="av3crt" width="4" height="4" patternUnits="userSpaceOnUse"><rect width="4" height="1" fill="#ffffff" opacity="0.05"/></pattern>
    <clipPath id="av3scr"><rect x="1.5" y="40" width="357" height="288.5"/></clipPath>
  </defs>
  <rect x="1.5" y="1.5" width="357" height="327" rx="11" fill="#0a0a0a" stroke="#2b2b2b" stroke-width="1.5"/>
  <rect x="1.5" y="1.5" width="357" height="40" rx="11" fill="#141414"/>
  <rect x="1.5" y="29" width="357" height="11" fill="#141414"/>
  <circle cx="26" cy="21" r="5" fill="none" stroke="#8a8a8a" stroke-width="1.4"/>
  <circle cx="46" cy="21" r="5" fill="none" stroke="#8a8a8a" stroke-width="1.4"/>
  <circle cx="66" cy="21" r="5" fill="none" stroke="#8a8a8a" stroke-width="1.4"/>
  <text x="180" y="25" text-anchor="middle" font-size="14" fill="#9a9a9a">avatar.exe</text>
  <line x1="1.5" y1="40" x2="358.5" y2="40" stroke="#2b2b2b" stroke-width="1"/>
  <g clip-path="url(#av3scr)">
    <text x="14" y="62" font-size="10" fill="#3d3d3d">$ ./build --watch</text>
    <text x="14" y="76" font-size="10" fill="#3d3d3d">&gt; ok 42ms</text>
    <text x="286" y="62" font-size="10" fill="#3d3d3d">[caffeine]</text>
    <line x1="16" y1="312" x2="344" y2="312" stroke="#3d3d3d" stroke-width="2"/>
    <g stroke="#e6e6e6" stroke-width="2.2" stroke-linecap="round" stroke-linejoin="round">
      <rect x="280" y="276" width="30" height="36" rx="4" fill="#0a0a0a"/>
      <path d="M310 284 C322 283, 322 303, 310 302" fill="none"/>
      <line x1="285" y1="284" x2="305" y2="284" stroke="#6a6a6a" stroke-width="1.6"/>
    </g>
    <path d="M289 268 C284 260, 294 254, 289 244" fill="none" stroke="#9a9a9a" stroke-width="2" stroke-linecap="round">
      <animate attributeName="opacity" values="0;0.85;0" dur="2.4s" repeatCount="indefinite"/>
      <animateTransform attributeName="transform" type="translate" values="0 8;0 -10" dur="2.4s" repeatCount="indefinite"/>
    </path>
    <path d="M301 268 C296 260, 306 254, 301 244" fill="none" stroke="#6a6a6a" stroke-width="2" stroke-linecap="round">
      <animate attributeName="opacity" values="0;0.85;0" dur="2.4s" begin="1.2s" repeatCount="indefinite"/>
      <animateTransform attributeName="transform" type="translate" values="0 8;0 -10" dur="2.4s" begin="1.2s" repeatCount="indefinite"/>
    </path>
    <g id="av3chr" stroke-linecap="round" stroke-linejoin="round">
      <animateTransform attributeName="transform" type="translate" values="0 0;0 2.5;0 0" dur="3s" repeatCount="indefinite"/>
      <path d="M118 294 C120 248, 140 214, 165 203 C170 211, 190 211, 195 203 C220 214, 240 248, 242 294 Z" fill="#0a0a0a" stroke="#e6e6e6" stroke-width="2.2"/>
      <path d="M158 216 C170 227, 190 227, 202 216" fill="none" stroke="#6a6a6a" stroke-width="2"/>
      <line x1="180" y1="226" x2="180" y2="292" stroke="#3d3d3d" stroke-width="2"/>
      <line x1="171" y1="228" x2="170" y2="246" stroke="#9a9a9a" stroke-width="2"/>
      <line x1="189" y1="228" x2="190" y2="246" stroke="#9a9a9a" stroke-width="2"/>
      <circle cx="170" cy="249" r="2" fill="#9a9a9a"/>
      <circle cx="190" cy="249" r="2" fill="#9a9a9a"/>
      <path d="M131 120 C128 160, 144 197, 180 201 C216 197, 232 160, 229 120 C224 88, 206 74, 180 74 C154 74, 136 88, 131 120 Z" fill="#0a0a0a" stroke="#e6e6e6" stroke-width="2.4"/>
      <path d="M124 134 C116 92, 146 62, 180 60 C214 62, 244 92, 236 134 L226 106 L218 132 L208 100 L196 128 L186 98 L174 128 L164 98 L152 130 L143 102 L134 134 Z" fill="#0a0a0a" stroke="#e6e6e6" stroke-width="2.4"/>
      <path d="M150 82 C160 74, 172 70, 184 70" fill="none" stroke="#6a6a6a" stroke-width="2"/>
      <path d="M204 78 C212 82, 220 90, 224 98" fill="none" stroke="#3d3d3d" stroke-width="2"/>
      <path d="M126 130 C122 158, 124 184, 116 206 L129 196 C132 172, 131 150, 132 136 Z" fill="#0a0a0a" stroke="#e6e6e6" stroke-width="2.2"/>
      <path d="M234 130 C238 158, 236 184, 244 206 L231 196 C228 172, 229 150, 228 136 Z" fill="#0a0a0a" stroke="#e6e6e6" stroke-width="2.2"/>
      <path d="M181 62 C176 48, 188 40, 199 37" fill="none" stroke="#e6e6e6" stroke-width="2.4">
        <animateTransform attributeName="transform" type="rotate" values="-4 181 62;6 181 62;-4 181 62" dur="3.4s" repeatCount="indefinite"/>
      </path>
      <path d="M132 96 C148 64, 212 64, 228 96" fill="none" stroke="#e6e6e6" stroke-width="3"/>
      <path d="M141 82 L128 52 L162 66 Z" fill="#0a0a0a" stroke="#e6e6e6" stroke-width="2.4"/>
      <path d="M219 82 L232 52 L198 66 Z" fill="#0a0a0a" stroke="#e6e6e6" stroke-width="2.4"/>
      <path d="M141 74 L136 61 L150 67 Z" fill="none" stroke="#6a6a6a" stroke-width="1.6"/>
      <path d="M219 74 L224 61 L210 67 Z" fill="none" stroke="#6a6a6a" stroke-width="1.6"/>
      <ellipse cx="127" cy="142" rx="11" ry="17" fill="#0a0a0a" stroke="#e6e6e6" stroke-width="2.4"/>
      <ellipse cx="233" cy="142" rx="11" ry="17" fill="#0a0a0a" stroke="#e6e6e6" stroke-width="2.4"/>
      <circle cx="127" cy="142" r="2.6" fill="#e6e6e6">
        <animate attributeName="opacity" values="1;0.2;1" dur="1.8s" repeatCount="indefinite"/>
      </circle>
      <circle cx="233" cy="142" r="2.6" fill="#e6e6e6">
        <animate attributeName="opacity" values="0.2;1;0.2" dur="1.8s" repeatCount="indefinite"/>
      </circle>
      <path d="M147 135 C152 130, 164 130, 170 133" fill="none" stroke="#e6e6e6" stroke-width="2.2"/>
      <path d="M213 135 C208 130, 196 130, 190 133" fill="none" stroke="#e6e6e6" stroke-width="2.2"/>
      <g>
        <animate attributeName="opacity" values="1;1;0;0;1;1" keyTimes="0;0.93;0.94;0.98;0.99;1" dur="4.2s" repeatCount="indefinite"/>
        <path d="M147 145 C152 137, 167 137, 172 145" fill="none" stroke="#e6e6e6" stroke-width="3.4"/>
        <path d="M213 145 C208 137, 193 137, 188 145" fill="none" stroke="#e6e6e6" stroke-width="3.4"/>
        <ellipse cx="159" cy="152" rx="8.5" ry="10.5" fill="#e6e6e6"/>
        <ellipse cx="201" cy="152" rx="8.5" ry="10.5" fill="#e6e6e6"/>
        <ellipse cx="159" cy="153" rx="4" ry="5.5" fill="#0a0a0a"/>
        <ellipse cx="201" cy="153" rx="4" ry="5.5" fill="#0a0a0a"/>
        <circle cx="155.5" cy="147.5" r="2.2" fill="#e6e6e6" stroke="#0a0a0a" stroke-width="0.8"/>
        <circle cx="197.5" cy="147.5" r="2.2" fill="#e6e6e6" stroke="#0a0a0a" stroke-width="0.8"/>
      </g>
      <g opacity="0">
        <animate attributeName="opacity" values="0;0;1;1;0;0" keyTimes="0;0.93;0.94;0.98;0.99;1" dur="4.2s" repeatCount="indefinite"/>
        <path d="M148 152 C154 158, 165 158, 171 152" fill="none" stroke="#e6e6e6" stroke-width="2.6"/>
        <path d="M212 152 C206 158, 195 158, 189 152" fill="none" stroke="#e6e6e6" stroke-width="2.6"/>
      </g>
      <path d="M180 162 L178 166" stroke="#9a9a9a" stroke-width="2" fill="none"/>
      <path d="M172 177 C177 182, 183 182, 188 177" fill="none" stroke="#e6e6e6" stroke-width="2.2"/>
      <path d="M140 165 L147 160 M145 169 L152 164" stroke="#6a6a6a" stroke-width="1.8" fill="none"/>
      <path d="M220 165 L213 160 M215 169 L208 164" stroke="#6a6a6a" stroke-width="1.8" fill="none"/>
    </g>
    <path d="M96 292 L264 292 L272 308 L88 308 Z" fill="#0a0a0a" stroke="#e6e6e6" stroke-width="2.2" stroke-linejoin="round"/>
    <line x1="93" y1="300" x2="267" y2="300" stroke="#3d3d3d" stroke-width="1.4"/>
    <g stroke="#3d3d3d" stroke-width="1.4">
      <line x1="112" y1="293.5" x2="110" y2="298.5"/><line x1="132" y1="293.5" x2="130" y2="298.5"/>
      <line x1="152" y1="293.5" x2="150" y2="298.5"/><line x1="172" y1="293.5" x2="170" y2="298.5"/>
      <line x1="192" y1="293.5" x2="190" y2="298.5"/><line x1="212" y1="293.5" x2="210" y2="298.5"/>
      <line x1="232" y1="293.5" x2="230" y2="298.5"/><line x1="150" y1="301.5" x2="148" y2="306.5"/>
      <line x1="214" y1="301.5" x2="212" y2="306.5"/>
    </g>
    <g stroke-linecap="round" stroke-linejoin="round">
      <animateTransform attributeName="transform" type="translate" values="0 0;0 2.5;0 0" dur="3s" repeatCount="indefinite"/>
      <path d="M140 232 C124 250, 122 268, 134 282 L152 286 C142 270, 145 252, 154 240 Z" fill="#0a0a0a" stroke="#e6e6e6" stroke-width="2.2"/>
      <path d="M220 232 C236 250, 238 268, 226 282 L208 286 C218 270, 215 252, 206 240 Z" fill="#0a0a0a" stroke="#e6e6e6" stroke-width="2.2"/>
      <g>
        <animateTransform attributeName="transform" type="translate" values="0 0;0 3;0 0" dur="0.36s" repeatCount="indefinite"/>
        <ellipse cx="147" cy="285" rx="10" ry="6.5" fill="#0a0a0a" stroke="#e6e6e6" stroke-width="2.2"/>
        <path d="M143 280 L143 285 M148 279 L148 285 M153 280 L153 285" stroke="#6a6a6a" stroke-width="1.4" fill="none"/>
      </g>
      <g>
        <animateTransform attributeName="transform" type="translate" values="0 3;0 0;0 3" dur="0.36s" repeatCount="indefinite"/>
        <ellipse cx="213" cy="285" rx="10" ry="6.5" fill="#0a0a0a" stroke="#e6e6e6" stroke-width="2.2"/>
        <path d="M207 280 L207 285 M212 279 L212 285 M217 280 L217 285" stroke="#6a6a6a" stroke-width="1.4" fill="none"/>
      </g>
    </g>
  </g>
  <g clip-path="url(#av3scr)">
    <rect x="1.5" y="40" width="357" height="290" fill="url(#av3crt)"/>
    <rect x="1.5" width="357" height="16" fill="#ffffff" opacity="0.05"><animate attributeName="y" values="40;328.5;40" dur="3.6s" repeatCount="indefinite"/></rect>
  </g>
</svg>
<svg x="20" y="730" width="380" height="142.5" viewBox="0 0 400 150" xmlns="http://www.w3.org/2000/svg" font-family="ui-monospace, SFMono-Regular, Menlo, Consolas, monospace">
  <defs>
    <pattern id="lccrt" width="4" height="4" patternUnits="userSpaceOnUse"><rect width="4" height="1" fill="#ffffff" opacity="0.05"/></pattern>
    <clipPath id="lcscr"><rect x="1.5" y="40" width="397" height="108.5"/></clipPath>
  </defs>
  <rect x="1.5" y="1.5" width="397" height="147" rx="11" fill="#0a0a0a" stroke="#2b2b2b" stroke-width="1.5"/>
  <rect x="1.5" y="1.5" width="397" height="40" rx="11" fill="#141414"/>
  <rect x="1.5" y="29" width="397" height="11" fill="#141414"/>
  <circle cx="26" cy="21" r="5" fill="none" stroke="#8a8a8a" stroke-width="1.4"/>
  <circle cx="46" cy="21" r="5" fill="none" stroke="#8a8a8a" stroke-width="1.4"/>
  <circle cx="66" cy="21" r="5" fill="none" stroke="#8a8a8a" stroke-width="1.4"/>
  <text x="200" y="25" text-anchor="middle" font-size="14" fill="#9a9a9a">lectern.exe</text>
  <line x1="1.5" y1="40" x2="398.5" y2="40" stroke="#2b2b2b" stroke-width="1"/>
  <g clip-path="url(#lcscr)">
    <g transform="translate(26,62) scale(0.64)" fill="#e6e6e6">
      <path d="M22 38 L78 30 L78 41 L22 49 Z"/>
      <path d="M44 43 L56 43 L60 76 L40 76 Z"/>
      <rect x="29" y="72" width="42" height="10" rx="3"/>
      <animate attributeName="opacity" values="1;0.82;1" dur="4s" repeatCount="indefinite"/>
    </g>
    <text x="110" y="97" font-size="26" font-weight="bold" letter-spacing="5" fill="#e6e6e6">LECTERN</text>
    <rect x="273" y="76" width="11" height="22" fill="#e6e6e6">
      <animate attributeName="opacity" values="1;1;0;0" dur="1.1s" repeatCount="indefinite"/>
    </rect>
    <text x="110" y="118" font-size="13" fill="#9a9a9a">multi-tenant test-prep platform</text>
  </g>
  <g clip-path="url(#lcscr)">
    <rect x="1.5" y="40" width="397" height="110" fill="url(#lccrt)"/>
    <rect x="1.5" width="397" height="16" fill="#ffffff" opacity="0.05"><animate attributeName="y" values="40;148.5;40" dur="3.6s" repeatCount="indefinite"/></rect>
  </g>
</svg>
<svg x="440" y="730" width="380" height="142.5" viewBox="0 0 400 150" xmlns="http://www.w3.org/2000/svg" font-family="ui-monospace, SFMono-Regular, Menlo, Consolas, monospace">
  <defs>
    <pattern id="hrcrt" width="4" height="4" patternUnits="userSpaceOnUse"><rect width="4" height="1" fill="#ffffff" opacity="0.05"/></pattern>
    <clipPath id="hrscr"><rect x="1.5" y="40" width="397" height="108.5"/></clipPath>
  </defs>
  <rect x="1.5" y="1.5" width="397" height="147" rx="11" fill="#0a0a0a" stroke="#2b2b2b" stroke-width="1.5"/>
  <rect x="1.5" y="1.5" width="397" height="40" rx="11" fill="#141414"/>
  <rect x="1.5" y="29" width="397" height="11" fill="#141414"/>
  <circle cx="26" cy="21" r="5" fill="none" stroke="#8a8a8a" stroke-width="1.4"/>
  <circle cx="46" cy="21" r="5" fill="none" stroke="#8a8a8a" stroke-width="1.4"/>
  <circle cx="66" cy="21" r="5" fill="none" stroke="#8a8a8a" stroke-width="1.4"/>
  <text x="200" y="25" text-anchor="middle" font-size="14" fill="#9a9a9a">hearth.exe</text>
  <line x1="1.5" y1="40" x2="398.5" y2="40" stroke="#2b2b2b" stroke-width="1"/>
  <g clip-path="url(#hrscr)">
    <g transform="translate(26,62) scale(1.3333)">
      <path fill="#e6e6e6" fill-rule="evenodd" d="M10 26 A14 14 0 0 1 38 26 L38 39 A3 3 0 0 1 35 42 L13 42 A3 3 0 0 1 10 39 Z M23.9 38.6 C 19.8 38.6, 16.8 35.7, 16.8 31.8 C 16.8 26.9, 21.4 24.9, 24.4 16.0 C 27.5 19.7, 31.1 24.7, 31.1 30.1 C 31.1 35.2, 27.9 38.6, 23.9 38.6 Z"/>
      <path fill="#ffffff" opacity="0.04" d="M23.9 38.6 C 19.8 38.6, 16.8 35.7, 16.8 31.8 C 16.8 26.9, 21.4 24.9, 24.4 16.0 C 27.5 19.7, 31.1 24.7, 31.1 30.1 C 31.1 35.2, 27.9 38.6, 23.9 38.6 Z">
        <animate attributeName="opacity" values="0.02;0.1;0.04;0.12;0.02" dur="2.4s" repeatCount="indefinite"/>
      </path>
    </g>
    <text x="110" y="97" font-size="26" font-weight="bold" letter-spacing="5" fill="#e6e6e6">HEARTH</text>
    <rect x="252" y="76" width="11" height="22" fill="#e6e6e6">
      <animate attributeName="opacity" values="1;1;0;0" dur="1.1s" repeatCount="indefinite"/>
    </rect>
    <text x="110" y="118" font-size="13" fill="#9a9a9a">agent-native game development</text>
  </g>
  <g clip-path="url(#hrscr)">
    <rect x="1.5" y="40" width="397" height="110" fill="url(#hrcrt)"/>
    <rect x="1.5" width="397" height="16" fill="#ffffff" opacity="0.05"><animate attributeName="y" values="40;148.5;40" dur="3.6s" repeatCount="indefinite"/></rect>
  </g>
</svg>
</svg>
